<?xml version="1.0" encoding="UTF-8" standalone="no"?>
<svg
   id="icon"
   width="32"
   height="32"
   fill="currentColor"
   viewBox="0 0 32 32"
   version="1.1"
   xmlns="http://www.w3.org/2000/svg">
  <path
     d="M 13,26 H 4 V 6 h 7.2 l 3.4,3.4 0.6,0.6 H 28 v 8 h 2 V 10 C 30,8.9 29.1,8 28,8 H 16 L 12.6,4.6 C 12.2,4.2 11.7,4 11.2,4 H 4 C 2.9,4 2,4.9 2,6 v 20 c 0,1.1 0.9,2 2,2 h 9 c 0,0 0,-2 0,-2 z" />
  <rect
     fill="none"
     width="32"
     height="32" />
  <path
     d="m 19.163899,27.48604 v -4.5599 h -3.039933 l 5.319883,-5.319883 5.319884,5.319883 h -3.039934 v 4.5599 z m -3.039933,3.039934 v -1.519967 h 10.639767 v 1.519967 z"
     style="stroke-width:0.759983" />
</svg>
