<?xml version="1.0" encoding="UTF-8" standalone="no"?>
<svg
   id="icon"
   width="32"
   height="32"
   viewBox="0 0 32 32"
   version="1.1"
   sodipodi:docname="upload.svg"
   inkscape:version="1.1.2 (b8e25be8, 2022-02-05)"
   xmlns:inkscape="http://www.inkscape.org/namespaces/inkscape"
   xmlns:sodipodi="http://sodipodi.sourceforge.net/DTD/sodipodi-0.dtd"
   xmlns="http://www.w3.org/2000/svg"
   xmlns:svg="http://www.w3.org/2000/svg">
  <sodipodi:namedview
     id="namedview832"
     pagecolor="#ffffff"
     bordercolor="#666666"
     borderopacity="1.0"
     inkscape:pageshadow="2"
     inkscape:pageopacity="0.0"
     inkscape:pagecheckerboard="0"
     showgrid="false"
     inkscape:zoom="26.46875"
     inkscape:cx="16"
     inkscape:cy="16"
     inkscape:window-width="1920"
     inkscape:window-height="1027"
     inkscape:window-x="1728"
     inkscape:window-y="25"
     inkscape:window-maximized="0"
     inkscape:current-layer="icon" />
  <defs
     id="defs826">
    <style
       id="style824">
      .cls-1 {
        fill: none;
      }
    </style>
  </defs>
  <path
     d="M 13,26 H 4 V 6 h 7.2 l 3.4,3.4 0.6,0.6 H 28 v 8 h 2 V 10 C 30,8.9 29.1,8 28,8 H 16 L 12.6,4.6 C 12.2,4.2 11.7,4 11.2,4 H 4 C 2.9,4 2,4.9 2,6 v 20 c 0,1.1 0.9,2 2,2 h 9 c 0,0 0,-2 0,-2 z"
     id="path828" />
  <rect
     id="_x3C_Transparent_Rectangle_x3E_"
     class="cls-1"
     width="32"
     height="32" />
  <path
     d="m 19.163899,27.48604 v -4.5599 h -3.039933 l 5.319883,-5.319883 5.319884,5.319883 h -3.039934 v 4.5599 z m -3.039933,3.039934 v -1.519967 h 10.639767 v 1.519967 z"
     id="path911"
     style="stroke-width:0.759983" />
</svg>
