<?xml version="1.0" encoding="UTF-8"?>
<svg width="32px" height="32px" viewBox="0 0 32 32" version="1.1" xmlns="http://www.w3.org/2000/svg" xmlns:xlink="http://www.w3.org/1999/xlink">
    <!-- Generator: Sketch 52.6 (67491) - http://www.bohemiancoding.com/sketch -->
    <title>SPARQL Select query</title>
    <desc>Created with Sketch.</desc>
    <g id="SPARQL-Select-query" stroke="none" stroke-width="1" fill="none" fill-rule="evenodd">
        <circle id="Oval" fill="#ffffff" cx="23" cy="7" r="4"></circle>
        <circle id="Oval" fill="#ffffff" cx="8" cy="6" r="4"></circle>
        <circle id="Oval" fill="#ffffff" cx="8" cy="26" r="4"></circle>
        <circle id="Oval" fill="#ffffff" cx="8" cy="16" r="3"></circle>
        <g id="zoom-pan" transform="translate(24.000000, 23.000000) rotate(18.000000) translate(-24.000000, -23.000000) translate(18.000000, 17.000000)" fill="#ffffff" fill-rule="nonzero">
            <path d="M9.375,4.71428571 C9.37672187,2.56407264 7.90723521,0.691752659 5.8182064,0.182461146 C3.72917759,-0.326830367 1.56286677,0.659106058 0.574796809,2.56885394 C-0.413273157,4.47860181 0.0333762196,6.81643789 1.65588158,8.22742888 C3.27838694,9.63841987 5.65558606,9.75630746 7.40973214,8.51276786 L10.3770536,11.4800893 L11.4800893,10.3770536 L8.51276786,7.40973214 C9.07260508,6.62233435 9.3739097,5.68041811 9.375,4.71428571 Z M4.71428571,7.82142857 C2.9982581,7.82142857 1.60714286,6.43031333 1.60714286,4.71428571 C1.60714286,2.9982581 2.9982581,1.60714286 4.71428571,1.60714286 C6.43031333,1.60714286 7.82142857,2.9982581 7.82142857,4.71428571 C7.82142857,5.53835124 7.49406982,6.32866518 6.9113675,6.9113675 C6.32866518,7.49406982 5.53835124,7.82142857 4.71428571,7.82142857 Z" id="Shape"></path>
        </g>
        <path d="M8,26.5 L8,6" id="Line" stroke="#ffffff" stroke-width="1.5" stroke-linecap="square"></path>
        <path d="M23,7 L8,16.25" id="Line" stroke="#ffffff" stroke-width="1.5" stroke-linecap="square"></path>
        <path d="M19,20.5 L8,16.25" id="Line" stroke="#ffffff" stroke-width="1.5" stroke-linecap="square"></path>
    </g>
</svg>