<?xml version="1.0" encoding="UTF-8" standalone="no"?>
<svg
        width="32px"
        height="32px"
        viewBox="0 0 32 32"
        version="1.1"
        fill="currentColor"
        xmlns="http://www.w3.org/2000/svg"
        xmlns:rdf="http://www.w3.org/1999/02/22-rdf-syntax-ns#"
        xmlns:cc="http://creativecommons.org/ns#"
        xmlns:dc="http://purl.org/dc/elements/1.1/">
    <title>SPARQL Select query</title>
    <path
            d="m 27,7 a 4,4 0 0 1 -4,4 4,4 0 0 1 -4,-4 4,4 0 0 1 4,-4 4,4 0 0 1 4,4 z" />
    <path
            d="M 12,6 A 4,4 0 0 1 8,10 4,4 0 0 1 4,6 4,4 0 0 1 8,2 4,4 0 0 1 12,6 Z" />
    <path
            d="m 12,26 a 4,4 0 0 1 -4,4 4,4 0 0 1 -4,-4 4,4 0 0 1 4,-4 4,4 0 0 1 4,4 z" />
    <path
            d="m 11,16 a 3,3 0 0 1 -3,3 3,3 0 0 1 -3,-3 3,3 0 0 1 3,-3 3,3 0 0 1 3,3 z" />
    <path
            d="m 27.607123,22.820145 c 0.66609,-2.044442 -0.152896,-4.27922 -1.982301,-5.40913 -1.829404,-1.129911 -4.194359,-0.861656 -5.724214,0.649291 -1.529855,1.510948 -1.827498,3.872384 -0.720423,5.715698 1.107074,1.843314 3.331495,2.690027 5.384062,2.049412 l 1.905138,3.739042 1.389905,-0.708192 -1.905137,-3.739043 c 0.775756,-0.575861 1.353382,-1.378568 1.65297,-2.297078 z m -5.392762,1.514829 c -1.632039,-0.530282 -2.52519,-2.283189 -1.994909,-3.915228 0.530282,-1.63204 2.283189,-2.525191 3.915229,-1.994909 1.632039,0.530282 2.52519,2.283189 1.994908,3.915228 -0.25465,0.783733 -0.810207,1.434207 -1.544455,1.808325 -0.734248,0.374118 -1.58704,0.441234 -2.370773,0.186584 z" />
    <path
            d="M 7.25,5.25 V 6 26.5 27.25 h 1.5 V 26.5 6 5.25 Z" />
    <path
            d="M 23.244141,5.96875 22.605469,6.3613281 7.6054687,15.611328 6.96875,16.005859 7.7558594,17.28125 8.3945313,16.888672 23.394531,7.6386719 24.03125,7.2441406 Z" />
    <path
            d="m 7.5703125,15.279297 -0.5410156,1.40039 0.7011718,0.269532 11.0000003,4.25 0.699218,0.271484 0.541016,-1.400391 -0.701172,-0.269531 -10.9999997,-4.25 z" />
    <metadata>
        <rdf:RDF>
            <cc:Work
                    rdf:about="">
                <dc:title>SPARQL Select query</dc:title>
            </cc:Work>
        </rdf:RDF>
    </metadata>
</svg>
