<?xml version="1.0" encoding="UTF-8" standalone="no"?>
<svg
   width="32px"
   height="32px"
   viewBox="0 0 32 32"
   fill="currentColor"
   version="1.1"
   xmlns="http://www.w3.org/2000/svg"
   xmlns:rdf="http://www.w3.org/1999/02/22-rdf-syntax-ns#"
   xmlns:cc="http://creativecommons.org/ns#"
   xmlns:dc="http://purl.org/dc/elements/1.1/">
  <title>SPARQL Update query</title>
  <path
     d="M 4 2 L 4 10 L 12 10 L 12 8 L 7.078125 8 C 10.391302 4.2913282 15.651816 3.0148379 20.296875 4.7910156 C 24.941935 6.5671932 28.006544 11.026938 28 16 L 30 16 C 30.00902 10.30657 26.564599 5.1770711 21.291016 3.03125 C 16.017433 0.885429 9.9686858 2.1521255 6 6.234375 L 6 2 L 4 2 z M 23 13 A 3 3 0 0 0 20 16 A 3 3 0 0 0 20.246094 17.191406 L 16.822266 20.615234 A 3 3 0 0 0 15 20 A 3 3 0 0 0 12 23 A 3 3 0 0 0 15 26 A 3 3 0 0 0 17.128906 25.113281 L 22 26.96875 A 3 3 0 0 1 22 26.970703 A 3 3 0 0 0 22 27 A 3 3 0 0 0 25 30 A 3 3 0 0 0 28 27 A 3 3 0 0 0 25.712891 24.085938 L 24.802734 18.398438 A 3 3 0 0 0 26 16 A 3 3 0 0 0 23 13 z M 2 16 C 2.00871 23.728377 8.271623 29.991293 16 30 L 16 28 C 9.3756443 27.992615 4.0073848 22.624356 4 16 L 2 16 z M 21.177734 18.384766 A 3 3 0 0 0 23 19 A 3 3 0 0 0 23.376953 18.976562 L 24.199219 24.109375 A 3 3 0 0 1 24.197266 24.109375 A 3 3 0 0 0 22.394531 25.513672 L 17.892578 23.798828 A 3 3 0 0 0 18 23 A 3 3 0 0 0 17.753906 21.808594 L 21.177734 18.384766 z " />
  <metadata>
    <rdf:RDF>
      <cc:Work
         rdf:about="">
        <dc:title>SPARQL Update query</dc:title>
      </cc:Work>
    </rdf:RDF>
  </metadata>
</svg>
