<?xml version="1.0" encoding="UTF-8"?>
<svg width="32px" height="32px" viewBox="0 0 32 32" version="1.1" xmlns="http://www.w3.org/2000/svg" xmlns:xlink="http://www.w3.org/1999/xlink">
    <!-- Generator: Sketch 52.6 (67491) - http://www.bohemiancoding.com/sketch -->
    <title>Parse XML</title>
    <desc>Created with Sketch.</desc>
    <g id="Parse-XML" stroke="none" stroke-width="1" fill="none" fill-rule="evenodd">
        <path d="M12,27.0003443 L6,27.0003443 L6,4.00034429 L16,4.00034429 L16,10.0003443 C16.0031856,11.1035916 16.8967527,11.9971587 18,12.0003443 L24,12.0003443 L24,15.0003443 L26,15.0003443 L26,10.0003443 C26.0072502,9.73435324 25.8976144,9.47853624 25.7,9.30034429 L18.7,2.30034429 C18.5218483,2.10267369 18.266004,1.99302615 18,2.00034429 L6,2.00034429 C4.8967527,2.00352987 4.00318558,2.897097 4,4.00034429 L4,27.0003443 C4.00318558,28.1035916 4.8967527,28.9971587 6,29.0003443 L12,29.0003443 L12,27.0003443 Z M18,4.40034429 L23.6,10.0003443 L18,10.0003443 L18,4.40034429 Z" id="Shape" fill="#ffffff" fill-rule="nonzero"></path>
        <g id="Group" transform="translate(14.000000, 22.000000)" fill="#ffffff" stroke="#ffffff" stroke-width="0.5">
            <polygon id="Path" points="12.2142857 6 12.2142857 0 11.2857143 0 11.2857143 7 15 7 15 6"></polygon>
            <polygon id="Path" points="8.42857143 0 7.72285714 2.5 7.5 3.49 7.28642857 2.5 6.57142857 0 5.64285714 0 5.64285714 7 6.57142857 7 6.57142857 3 6.49714286 2 6.76642857 3 7.5 5.315 8.23357143 3 8.50285714 2 8.42857143 3 8.42857143 7 9.35714286 7 9.35714286 0"></polygon>
            <polygon id="Path" points="3.71428571 0 2.78571429 0 1.85714286 3 0.928571429 0 0 0 1.27678571 3.5 0 7 0.928571429 7 1.85714286 4 2.78571429 7 3.71428571 7 2.4375 3.5"></polygon>
        </g>
        <polygon id="Path" fill="#ffffff" points="19.3892989 17 17.0092251 18.935 18.3099631 20 22 17 18.3099631 14 17 15.0575"></polygon>
        <polygon id="Path" fill="#ffffff" points="14.5859542 21 13 20.53832 15.4141287 13 17 13.46168"></polygon>
        <polygon id="Path" fill="#ffffff" points="10.6107011 17 12.9907749 15.065 11.6900369 14 8 17 11.6900369 20 13 18.9425"></polygon>
    </g>
</svg>