<svg version="1.1" height="40" width="40" xmlns="http://www.w3.org/2000/svg" viewBox="0 0 40 40"><path fill="#F39200" d="M31.8,12.7c2.2,0,4-1.8,4-4c0-2.2-1.8-4-4-4c-2.2,0-4,1.8-4,4c0,0.6,0.1,1.2,0.4,1.7l-7.1,3.3 c-1.5-3-4.5-5.1-8.1-5.1c-5,0-9,4-9,9c0,5,4,9,9,9c2.5,0,4.8-1.1,6.5-2.8l4.2,3.7c-1,1-1.7,2.4-1.7,4c0,3,2.5,5.5,5.5,5.5 s5.5-2.5,5.5-5.5c0-2.6-1.8-4.8-4.2-5.3l2.7-13.5C31.6,12.7,31.7,12.7,31.8,12.7z M27.8,26c-0.1,0-0.2,0-0.3,0c-1.1,0-2.1,0.3-3,0.9 l-4.4-3.8c1.2-1.5,1.9-3.4,1.9-5.5c0-1.1-0.2-2.1-0.5-3l7.2-3.4c0.5,0.6,1.1,1,1.8,1.2L27.8,26z"/></svg>